<?xml version="1.0" encoding="utf-8"?>
<!-- Generator: Adobe Illustrator 26.1.0, SVG Export Plug-In . SVG Version: 6.00 Build 0)  -->
<svg version="1.1" id="Шар_1" xmlns="http://www.w3.org/2000/svg" xmlns:xlink="http://www.w3.org/1999/xlink" x="0px" y="0px"
	 viewBox="0 0 841 150" style="enable-background:new 0 0 841 150;" xml:space="preserve">
<style type="text/css">
	.st0{fill:#6163A9;}
	.st1{fill:#010202;}
</style>
<g>
	<g>
		<path class="st0" d="M17.29,31c1.11,0,2.29,0.3,3.52,0.9c1.23,0.6,2.17,1.37,2.81,2.33L52.65,78.9l-5.97-0.24l29.75-44.44
			c1.51-2.15,3.46-3.23,5.85-3.23c1.91,0,3.62,0.68,5.14,2.03c1.51,1.35,2.27,3.11,2.27,5.26v69.17c0,2.07-0.68,3.8-2.03,5.2
			c-1.35,1.39-3.15,2.09-5.38,2.09c-2.23,0-4.04-0.7-5.44-2.09c-1.39-1.39-2.09-3.12-2.09-5.2V51.19l4.66,1.08L55.04,89.42
			c-0.72,0.88-1.61,1.63-2.69,2.27c-1.08,0.64-2.17,0.92-3.29,0.84c-1.04,0.08-2.09-0.2-3.17-0.84c-1.08-0.64-1.97-1.39-2.69-2.27
			L20.4,53.34L23.5,47v60.45c0,2.07-0.64,3.8-1.91,5.2c-1.27,1.39-2.95,2.09-5.02,2.09c-1.99,0-3.62-0.7-4.9-2.09
			c-1.27-1.39-1.91-3.12-1.91-5.2V38.28c0-1.99,0.74-3.7,2.21-5.14C13.45,31.71,15.22,31,17.29,31z"/>
		<path class="st0" d="M158.74,49.63c2.07,0,3.78,0.68,5.14,2.03c1.35,1.35,2.03,3.11,2.03,5.26v50.53c0,2.07-0.68,3.8-2.03,5.2
			c-1.35,1.39-3.07,2.09-5.14,2.09c-2.07,0-3.78-0.7-5.14-2.09c-1.36-1.39-2.03-3.12-2.03-5.2v-5.85l2.63,1.08
			c0,1.04-0.56,2.29-1.67,3.76c-1.12,1.47-2.63,2.93-4.54,4.36c-1.91,1.43-4.16,2.65-6.75,3.64c-2.59,1-5.4,1.49-8.42,1.49
			c-5.5,0-10.47-1.41-14.93-4.24c-4.46-2.83-7.99-6.73-10.57-11.71c-2.59-4.98-3.88-10.69-3.88-17.14c0-6.53,1.29-12.28,3.88-17.26
			c2.59-4.98,6.07-8.88,10.45-11.71c4.38-2.83,9.24-4.24,14.57-4.24c3.42,0,6.57,0.52,9.44,1.55c2.87,1.04,5.36,2.35,7.47,3.94
			c2.11,1.59,3.74,3.21,4.9,4.84c1.15,1.63,1.73,3.01,1.73,4.12l-4.3,1.55v-8.72c0-2.07,0.68-3.8,2.03-5.2
			C154.95,50.33,156.66,49.63,158.74,49.63z M134.6,102.8c3.5,0,6.57-0.88,9.2-2.63c2.63-1.75,4.68-4.14,6.15-7.17
			c1.47-3.03,2.21-6.41,2.21-10.15c0-3.82-0.74-7.25-2.21-10.27c-1.47-3.03-3.52-5.42-6.15-7.17c-2.63-1.75-5.7-2.63-9.2-2.63
			c-3.43,0-6.45,0.88-9.08,2.63c-2.63,1.75-4.68,4.14-6.15,7.17c-1.47,3.03-2.21,6.45-2.21,10.27c0,3.74,0.74,7.13,2.21,10.15
			c1.47,3.03,3.52,5.42,6.15,7.17C128.15,101.92,131.18,102.8,134.6,102.8z"/>
		<path class="st0" d="M177.73,104.83c-0.8-1.11-1.16-2.55-1.08-4.3c0.08-1.75,1.11-3.26,3.11-4.54c1.27-0.8,2.63-1.14,4.06-1.02
			c1.43,0.12,2.83,0.86,4.18,2.21c2.31,2.31,4.74,4.1,7.29,5.38c2.55,1.28,5.73,1.91,9.56,1.91c1.19-0.08,2.51-0.26,3.94-0.54
			c1.43-0.28,2.69-0.92,3.76-1.91c1.08-0.99,1.61-2.53,1.61-4.6c0-1.75-0.6-3.15-1.79-4.18c-1.19-1.03-2.77-1.91-4.72-2.63
			c-1.95-0.72-4.12-1.39-6.51-2.03c-2.47-0.72-5-1.51-7.59-2.39c-2.59-0.88-4.96-2.01-7.11-3.4c-2.15-1.39-3.9-3.24-5.26-5.56
			c-1.35-2.31-2.03-5.22-2.03-8.72c0-3.98,1.11-7.37,3.34-10.15c2.23-2.79,5.12-4.94,8.66-6.45c3.54-1.51,7.27-2.27,11.17-2.27
			c2.47,0,5.06,0.3,7.77,0.9c2.71,0.6,5.3,1.55,7.77,2.87c2.47,1.31,4.54,3.05,6.21,5.2c0.88,1.19,1.39,2.63,1.55,4.3
			c0.16,1.67-0.6,3.19-2.27,4.54c-1.19,0.96-2.59,1.37-4.18,1.25c-1.59-0.12-2.91-0.66-3.94-1.61c-1.35-1.75-3.17-3.15-5.44-4.18
			c-2.27-1.03-4.88-1.55-7.83-1.55c-1.19,0-2.49,0.14-3.88,0.42c-1.39,0.28-2.61,0.88-3.64,1.79c-1.04,0.92-1.55,2.37-1.55,4.36
			c0,1.83,0.6,3.29,1.79,4.36c1.19,1.08,2.81,1.95,4.84,2.63c2.03,0.68,4.2,1.33,6.51,1.97c2.39,0.64,4.82,1.39,7.29,2.27
			c2.47,0.88,4.74,2.03,6.81,3.46c2.07,1.43,3.74,3.29,5.02,5.56c1.27,2.27,1.91,5.16,1.91,8.66c0,4.06-1.19,7.53-3.58,10.39
			c-2.39,2.87-5.38,5.04-8.96,6.51s-7.25,2.21-10.99,2.21c-4.7,0-9.4-0.82-14.1-2.45C184.74,111.86,180.84,108.97,177.73,104.83z"/>
		<path class="st0" d="M239.73,52.02h28.31c1.91,0,3.5,0.64,4.78,1.91c1.27,1.28,1.91,2.87,1.91,4.78c0,1.83-0.64,3.37-1.91,4.6
			c-1.27,1.24-2.87,1.85-4.78,1.85h-28.31c-1.91,0-3.51-0.64-4.78-1.91c-1.27-1.27-1.91-2.87-1.91-4.78c0-1.83,0.64-3.36,1.91-4.6
			C236.23,52.64,237.82,52.02,239.73,52.02z M252.52,37.09c2.07,0,3.76,0.7,5.08,2.09c1.31,1.39,1.97,3.13,1.97,5.2v53.16
			c0,1.12,0.22,2.03,0.66,2.75c0.44,0.72,1.03,1.24,1.79,1.55c0.76,0.32,1.57,0.48,2.45,0.48c0.96,0,1.83-0.18,2.63-0.54
			c0.8-0.36,1.71-0.54,2.75-0.54c1.11,0,2.13,0.52,3.05,1.55c0.92,1.04,1.37,2.47,1.37,4.3c0,2.23-1.22,4.06-3.64,5.5
			c-2.43,1.43-5.04,2.15-7.83,2.15c-1.67,0-3.52-0.14-5.56-0.42c-2.03-0.28-3.94-0.96-5.73-2.03s-3.29-2.73-4.48-4.96
			c-1.19-2.23-1.79-5.29-1.79-9.2V44.38c0-2.07,0.7-3.8,2.09-5.2C248.71,37.79,250.44,37.09,252.52,37.09z"/>
		<path class="st0" d="M317.98,115.94c-6.77,0-12.64-1.41-17.62-4.24c-4.98-2.83-8.8-6.67-11.47-11.53c-2.67-4.86-4-10.35-4-16.49
			c0-7.17,1.45-13.28,4.36-18.34c2.91-5.06,6.71-8.94,11.41-11.65c4.7-2.71,9.68-4.06,14.93-4.06c4.06,0,7.9,0.84,11.53,2.51
			c3.62,1.67,6.83,3.96,9.62,6.87c2.79,2.91,5,6.27,6.63,10.09c1.63,3.82,2.45,7.89,2.45,12.19c-0.08,1.91-0.84,3.46-2.27,4.66
			c-1.43,1.19-3.11,1.79-5.02,1.79h-45.64l-3.58-11.95h43.84l-2.63,2.39v-3.23c-0.16-2.31-0.98-4.38-2.45-6.21
			c-1.47-1.83-3.31-3.29-5.5-4.36c-2.19-1.08-4.52-1.61-6.99-1.61c-2.39,0-4.62,0.32-6.69,0.96c-2.07,0.64-3.86,1.71-5.38,3.23
			c-1.51,1.51-2.71,3.54-3.58,6.09c-0.88,2.55-1.31,5.78-1.31,9.68c0,4.3,0.9,7.94,2.69,10.93s4.1,5.26,6.93,6.81
			c2.83,1.55,5.83,2.33,9.02,2.33c2.95,0,5.3-0.24,7.05-0.72c1.75-0.48,3.17-1.05,4.24-1.73c1.08-0.68,2.05-1.25,2.93-1.73
			c1.43-0.72,2.79-1.08,4.06-1.08c1.75,0,3.2,0.6,4.36,1.79c1.15,1.19,1.73,2.59,1.73,4.18c0,2.15-1.12,4.1-3.35,5.85
			c-2.07,1.75-4.98,3.29-8.72,4.6C325.83,115.28,321.96,115.94,317.98,115.94z"/>
		<path class="st0" d="M365.53,114.74c-2.07,0-3.78-0.7-5.14-2.09c-1.36-1.39-2.03-3.12-2.03-5.2V58.12c0-2.07,0.68-3.8,2.03-5.2
			c1.35-1.39,3.06-2.09,5.14-2.09c2.07,0,3.78,0.7,5.14,2.09c1.35,1.39,2.03,3.13,2.03,5.2v11.23l-0.84-8
			c0.88-1.91,2.01-3.6,3.4-5.08c1.39-1.47,2.97-2.71,4.72-3.7c1.75-1,3.62-1.73,5.61-2.21c1.99-0.48,3.98-0.72,5.97-0.72
			c2.39,0,4.4,0.68,6.03,2.03c1.63,1.35,2.45,2.95,2.45,4.78c0,2.63-0.68,4.52-2.03,5.67c-1.36,1.16-2.83,1.73-4.42,1.73
			c-1.51,0-2.89-0.28-4.12-0.84c-1.24-0.56-2.65-0.84-4.24-0.84c-1.43,0-2.89,0.34-4.36,1.02c-1.47,0.68-2.83,1.73-4.06,3.17
			c-1.24,1.43-2.23,3.21-2.99,5.32c-0.76,2.11-1.14,4.6-1.14,7.47v28.31c0,2.07-0.68,3.8-2.03,5.2
			C369.31,114.05,367.6,114.74,365.53,114.74z"/>
		<path class="st1" d="M418.93,31c1.11,0,2.29,0.3,3.52,0.9c1.23,0.6,2.17,1.37,2.81,2.33l29.03,44.68l-5.97-0.24l29.75-44.44
			c1.51-2.15,3.46-3.23,5.85-3.23c1.91,0,3.62,0.68,5.14,2.03c1.51,1.35,2.27,3.11,2.27,5.26v69.17c0,2.07-0.68,3.8-2.03,5.2
			c-1.35,1.39-3.15,2.09-5.38,2.09c-2.23,0-4.04-0.7-5.44-2.09c-1.39-1.39-2.09-3.12-2.09-5.2V51.19l4.66,1.08l-24.37,37.15
			c-0.72,0.88-1.61,1.63-2.69,2.27c-1.08,0.64-2.17,0.92-3.29,0.84c-1.04,0.08-2.09-0.2-3.17-0.84c-1.08-0.64-1.97-1.39-2.69-2.27
			l-22.82-36.08l3.11-6.33v60.45c0,2.07-0.64,3.8-1.91,5.2c-1.27,1.39-2.95,2.09-5.02,2.09c-1.99,0-3.62-0.7-4.9-2.09
			c-1.27-1.39-1.91-3.12-1.91-5.2V38.28c0-1.99,0.74-3.7,2.21-5.14C415.09,31.71,416.86,31,418.93,31z"/>
		<path class="st1" d="M560.38,49.63c2.07,0,3.78,0.68,5.14,2.03c1.35,1.35,2.03,3.11,2.03,5.26v50.53c0,2.07-0.68,3.8-2.03,5.2
			c-1.36,1.39-3.07,2.09-5.14,2.09c-2.07,0-3.78-0.7-5.14-2.09c-1.35-1.39-2.03-3.12-2.03-5.2v-5.85l2.63,1.08
			c0,1.04-0.56,2.29-1.67,3.76c-1.12,1.47-2.63,2.93-4.54,4.36c-1.91,1.43-4.16,2.65-6.75,3.64c-2.59,1-5.4,1.49-8.42,1.49
			c-5.5,0-10.47-1.41-14.93-4.24c-4.46-2.83-7.99-6.73-10.57-11.71c-2.59-4.98-3.88-10.69-3.88-17.14c0-6.53,1.29-12.28,3.88-17.26
			c2.59-4.98,6.07-8.88,10.45-11.71c4.38-2.83,9.24-4.24,14.58-4.24c3.42,0,6.57,0.52,9.44,1.55c2.87,1.04,5.36,2.35,7.47,3.94
			c2.11,1.59,3.74,3.21,4.9,4.84c1.15,1.63,1.73,3.01,1.73,4.12l-4.3,1.55v-8.72c0-2.07,0.68-3.8,2.03-5.2
			C556.59,50.33,558.3,49.63,560.38,49.63z M536.24,102.8c3.5,0,6.57-0.88,9.2-2.63c2.63-1.75,4.68-4.14,6.15-7.17
			c1.47-3.03,2.21-6.41,2.21-10.15c0-3.82-0.74-7.25-2.21-10.27c-1.47-3.03-3.52-5.42-6.15-7.17c-2.63-1.75-5.7-2.63-9.2-2.63
			c-3.42,0-6.45,0.88-9.08,2.63c-2.63,1.75-4.68,4.14-6.15,7.17c-1.47,3.03-2.21,6.45-2.21,10.27c0,3.74,0.74,7.13,2.21,10.15
			c1.47,3.03,3.52,5.42,6.15,7.17C529.79,101.92,532.82,102.8,536.24,102.8z"/>
		<path class="st1" d="M590.24,114.74c-2.07,0-3.78-0.7-5.14-2.09c-1.35-1.39-2.03-3.12-2.03-5.2V58.12c0-2.07,0.68-3.8,2.03-5.2
			c1.35-1.39,3.07-2.09,5.14-2.09c2.07,0,3.78,0.7,5.14,2.09c1.35,1.39,2.03,3.13,2.03,5.2v11.23l-0.84-8
			c0.88-1.91,2.01-3.6,3.41-5.08c1.39-1.47,2.97-2.71,4.72-3.7c1.75-1,3.62-1.73,5.62-2.21c1.99-0.48,3.98-0.72,5.97-0.72
			c2.39,0,4.4,0.68,6.03,2.03c1.63,1.35,2.45,2.95,2.45,4.78c0,2.63-0.68,4.52-2.03,5.67c-1.35,1.16-2.83,1.73-4.42,1.73
			c-1.51,0-2.89-0.28-4.12-0.84c-1.24-0.56-2.65-0.84-4.24-0.84c-1.43,0-2.89,0.34-4.36,1.02c-1.48,0.68-2.83,1.73-4.06,3.17
			c-1.24,1.43-2.23,3.21-2.99,5.32c-0.76,2.11-1.13,4.6-1.13,7.47v28.31c0,2.07-0.68,3.8-2.03,5.2
			C594.02,114.05,592.31,114.74,590.24,114.74z"/>
		<path class="st1" d="M643.28,114.74c-2.07,0-3.78-0.7-5.14-2.09c-1.36-1.39-2.03-3.12-2.03-5.2V33.62c0-2.07,0.68-3.8,2.03-5.2
			c1.35-1.39,3.06-2.09,5.14-2.09c2.07,0,3.78,0.7,5.14,2.09c1.35,1.39,2.03,3.13,2.03,5.2v73.83c0,2.07-0.68,3.8-2.03,5.2
			C647.07,114.05,645.35,114.74,643.28,114.74z M681.27,50.83c1.83,0,3.42,0.76,4.78,2.27c1.35,1.51,2.03,2.99,2.03,4.42
			c0,1.91-0.96,3.7-2.87,5.38l-35.96,33.09l-0.6-16.49l27.36-26.4C677.53,51.59,679.28,50.83,681.27,50.83z M683.07,114.62
			c-2.07,0-3.82-0.8-5.26-2.39l-22.1-23.42l10.87-10.04l21.5,23.42c1.51,1.59,2.27,3.39,2.27,5.38c0,2.07-0.82,3.76-2.45,5.08
			C686.27,113.97,684.66,114.62,683.07,114.62z"/>
		<path class="st1" d="M733,115.94c-6.77,0-12.65-1.41-17.62-4.24c-4.98-2.83-8.8-6.67-11.47-11.53c-2.67-4.86-4-10.35-4-16.49
			c0-7.17,1.45-13.28,4.36-18.34c2.91-5.06,6.71-8.94,11.41-11.65c4.7-2.71,9.68-4.06,14.93-4.06c4.06,0,7.9,0.84,11.53,2.51
			c3.62,1.67,6.83,3.96,9.62,6.87c2.79,2.91,5,6.27,6.63,10.09c1.63,3.82,2.45,7.89,2.45,12.19c-0.08,1.91-0.84,3.46-2.27,4.66
			c-1.43,1.19-3.11,1.79-5.02,1.79h-45.64l-3.58-11.95h43.84l-2.63,2.39v-3.23c-0.16-2.31-0.98-4.38-2.45-6.21
			c-1.47-1.83-3.31-3.29-5.5-4.36c-2.19-1.08-4.52-1.61-6.99-1.61c-2.39,0-4.62,0.32-6.69,0.96c-2.07,0.64-3.86,1.71-5.38,3.23
			c-1.51,1.51-2.71,3.54-3.58,6.09c-0.88,2.55-1.31,5.78-1.31,9.68c0,4.3,0.9,7.94,2.69,10.93s4.1,5.26,6.93,6.81
			c2.83,1.55,5.83,2.33,9.02,2.33c2.95,0,5.3-0.24,7.05-0.72c1.75-0.48,3.17-1.05,4.24-1.73c1.08-0.68,2.05-1.25,2.93-1.73
			c1.43-0.72,2.79-1.08,4.06-1.08c1.75,0,3.21,0.6,4.36,1.79c1.15,1.19,1.73,2.59,1.73,4.18c0,2.15-1.12,4.1-3.35,5.85
			c-2.07,1.75-4.98,3.29-8.72,4.6C740.84,115.28,736.98,115.94,733,115.94z"/>
		<path class="st1" d="M774.1,52.02h28.31c1.91,0,3.5,0.64,4.78,1.91c1.27,1.28,1.91,2.87,1.91,4.78c0,1.83-0.64,3.37-1.91,4.6
			c-1.27,1.24-2.87,1.85-4.78,1.85H774.1c-1.91,0-3.51-0.64-4.78-1.91c-1.27-1.27-1.91-2.87-1.91-4.78c0-1.83,0.64-3.36,1.91-4.6
			C770.59,52.64,772.19,52.02,774.1,52.02z M786.88,37.09c2.07,0,3.76,0.7,5.08,2.09c1.31,1.39,1.97,3.13,1.97,5.2v53.16
			c0,1.12,0.22,2.03,0.66,2.75c0.44,0.72,1.03,1.24,1.79,1.55c0.76,0.32,1.57,0.48,2.45,0.48c0.96,0,1.83-0.18,2.63-0.54
			c0.79-0.36,1.71-0.54,2.75-0.54c1.11,0,2.13,0.52,3.05,1.55c0.92,1.04,1.37,2.47,1.37,4.3c0,2.23-1.21,4.06-3.64,5.5
			c-2.43,1.43-5.04,2.15-7.83,2.15c-1.67,0-3.52-0.14-5.55-0.42c-2.03-0.28-3.94-0.96-5.73-2.03s-3.29-2.73-4.48-4.96
			c-1.19-2.23-1.79-5.29-1.79-9.2V44.38c0-2.07,0.7-3.8,2.09-5.2C783.08,37.79,784.81,37.09,786.88,37.09z"/>
		<path class="st0" d="M828.57,114.62c-2.31,0-4.08-0.62-5.32-1.85c-1.24-1.23-1.85-3-1.85-5.32v-2.03c0-2.31,0.62-4.08,1.85-5.32
			c1.23-1.23,3-1.85,5.32-1.85h1.55c2.31,0,4.08,0.62,5.32,1.85c1.23,1.24,1.85,3.01,1.85,5.32v2.03c0,2.31-0.62,4.08-1.85,5.32
			c-1.24,1.24-3.01,1.85-5.32,1.85H828.57z"/>
	</g>
</g>
</svg>
