<?xml version="1.0" encoding="utf-8"?>
<!-- Generator: Adobe Illustrator 26.1.0, SVG Export Plug-In . SVG Version: 6.00 Build 0)  -->
<svg version="1.1" id="Шар_1" xmlns="http://www.w3.org/2000/svg" xmlns:xlink="http://www.w3.org/1999/xlink" x="0px" y="0px"
	 viewBox="0 0 1061.97 189.41" style="enable-background:new 0 0 1061.97 189.41;" xml:space="preserve">
<style type="text/css">
	.st0{fill:#6163A9;}
	.st1{fill:#010202;}
</style>
<g>
	<g>
		<path class="st0" d="M21.63,35.68c1.41,0,2.89,0.38,4.45,1.13c1.56,0.75,2.74,1.74,3.55,2.94l36.67,56.43l-7.54-0.3l37.57-56.13
			c1.91-2.72,4.38-4.07,7.39-4.07c2.41,0,4.58,0.86,6.49,2.57c1.91,1.71,2.87,3.92,2.87,6.64v87.36c0,2.62-0.86,4.8-2.56,6.56
			c-1.71,1.76-3.98,2.64-6.79,2.64c-2.82,0-5.11-0.88-6.87-2.64c-1.76-1.76-2.64-3.95-2.64-6.56V61.18l5.88,1.36l-30.78,46.93
			c-0.91,1.11-2.04,2.06-3.4,2.87c-1.36,0.81-2.74,1.16-4.15,1.06c-1.31,0.1-2.64-0.25-4-1.06c-1.36-0.8-2.49-1.76-3.4-2.87
			L25.55,63.89l3.92-8v76.35c0,2.62-0.81,4.8-2.41,6.56c-1.61,1.76-3.72,2.64-6.34,2.64c-2.52,0-4.58-0.88-6.19-2.64
			c-1.61-1.76-2.41-3.95-2.41-6.56V44.88c0-2.51,0.93-4.68,2.79-6.49C16.77,36.58,19.01,35.68,21.63,35.68z"/>
		<path class="st0" d="M200.27,59.22c2.61,0,4.78,0.86,6.49,2.56c1.71,1.71,2.57,3.92,2.57,6.64v63.82c0,2.62-0.86,4.8-2.57,6.56
			c-1.71,1.76-3.87,2.64-6.49,2.64c-2.62,0-4.78-0.88-6.49-2.64c-1.71-1.76-2.56-3.95-2.56-6.56v-7.39l3.32,1.36
			c0,1.31-0.7,2.89-2.11,4.75c-1.41,1.86-3.32,3.7-5.73,5.51c-2.41,1.81-5.26,3.35-8.53,4.6c-3.27,1.26-6.82,1.89-10.64,1.89
			c-6.94,0-13.23-1.78-18.86-5.36c-5.63-3.57-10.09-8.5-13.35-14.79c-3.27-6.29-4.9-13.5-4.9-21.65c0-8.25,1.63-15.52,4.9-21.8
			c3.27-6.28,7.67-11.21,13.2-14.79c5.53-3.57,11.67-5.36,18.41-5.36c4.32,0,8.3,0.66,11.92,1.96c3.62,1.31,6.76,2.97,9.43,4.98
			c2.66,2.01,4.73,4.05,6.19,6.11c1.46,2.06,2.19,3.8,2.19,5.21l-5.43,1.96V68.42c0-2.61,0.85-4.8,2.56-6.56
			C195.49,60.1,197.66,59.22,200.27,59.22z M169.79,126.36c4.43,0,8.3-1.11,11.62-3.32c3.32-2.21,5.91-5.23,7.77-9.05
			c1.86-3.82,2.79-8.1,2.79-12.83c0-4.83-0.93-9.15-2.79-12.98c-1.86-3.82-4.45-6.84-7.77-9.05c-3.32-2.21-7.19-3.32-11.62-3.32
			c-4.33,0-8.15,1.11-11.47,3.32c-3.32,2.21-5.91,5.23-7.77,9.05c-1.86,3.82-2.79,8.15-2.79,12.98c0,4.73,0.93,9,2.79,12.83
			c1.86,3.82,4.45,6.84,7.77,9.05C161.65,125.25,165.47,126.36,169.79,126.36z"/>
		<path class="st0" d="M224.26,128.93c-1.01-1.41-1.46-3.22-1.36-5.43c0.1-2.21,1.41-4.12,3.92-5.73c1.61-1,3.32-1.43,5.13-1.28
			c1.81,0.15,3.57,1.08,5.28,2.79c2.92,2.92,5.98,5.18,9.2,6.79c3.22,1.61,7.24,2.41,12.07,2.41c1.51-0.1,3.17-0.33,4.98-0.68
			c1.81-0.35,3.4-1.16,4.75-2.41c1.36-1.26,2.04-3.19,2.04-5.81c0-2.21-0.75-3.97-2.26-5.28c-1.51-1.31-3.5-2.41-5.96-3.32
			c-2.47-0.91-5.21-1.76-8.22-2.57c-3.12-0.91-6.31-1.91-9.58-3.02c-3.27-1.11-6.26-2.54-8.98-4.3c-2.72-1.76-4.93-4.1-6.64-7.02
			c-1.71-2.92-2.56-6.59-2.56-11.01c0-5.03,1.41-9.3,4.22-12.83c2.81-3.52,6.46-6.24,10.94-8.15c4.48-1.91,9.18-2.87,14.11-2.87
			c3.12,0,6.39,0.38,9.81,1.13c3.42,0.75,6.69,1.96,9.81,3.62c3.12,1.66,5.73,3.85,7.85,6.56c1.11,1.51,1.76,3.32,1.96,5.43
			c0.2,2.11-0.75,4.02-2.87,5.73c-1.51,1.21-3.27,1.74-5.28,1.58c-2.01-0.15-3.67-0.83-4.98-2.04c-1.71-2.21-4-3.97-6.87-5.28
			c-2.87-1.31-6.16-1.96-9.88-1.96c-1.51,0-3.15,0.18-4.9,0.53c-1.76,0.35-3.3,1.11-4.6,2.26c-1.31,1.16-1.96,2.99-1.96,5.51
			c0,2.32,0.75,4.15,2.26,5.51c1.51,1.36,3.55,2.47,6.11,3.32c2.57,0.86,5.3,1.69,8.22,2.49c3.02,0.81,6.08,1.76,9.2,2.87
			c3.12,1.11,5.98,2.57,8.6,4.38c2.61,1.81,4.73,4.15,6.34,7.02c1.61,2.87,2.41,6.51,2.41,10.94c0,5.13-1.51,9.51-4.53,13.13
			c-3.02,3.62-6.79,6.36-11.32,8.22c-4.53,1.86-9.15,2.79-13.88,2.79c-5.94,0-11.87-1.03-17.8-3.09
			C233.11,137.8,228.18,134.16,224.26,128.93z"/>
		<path class="st0" d="M302.57,62.23h35.76c2.41,0,4.43,0.81,6.04,2.41c1.61,1.61,2.41,3.62,2.41,6.04c0,2.31-0.81,4.25-2.41,5.81
			c-1.61,1.56-3.62,2.34-6.04,2.34h-35.76c-2.41,0-4.43-0.8-6.04-2.41c-1.61-1.61-2.41-3.62-2.41-6.04c0-2.31,0.8-4.25,2.41-5.81
			C298.14,63.01,300.16,62.23,302.57,62.23z M318.71,43.37c2.61,0,4.75,0.88,6.41,2.64c1.66,1.76,2.49,3.95,2.49,6.56v67.14
			c0,1.41,0.28,2.57,0.83,3.47c0.55,0.91,1.31,1.56,2.26,1.96c0.95,0.4,1.98,0.6,3.09,0.6c1.21,0,2.31-0.23,3.32-0.68
			c1-0.45,2.16-0.68,3.47-0.68c1.41,0,2.69,0.66,3.85,1.96c1.16,1.31,1.74,3.12,1.74,5.43c0,2.82-1.53,5.13-4.6,6.94
			c-3.07,1.81-6.36,2.72-9.88,2.72c-2.11,0-4.45-0.17-7.02-0.53c-2.56-0.35-4.98-1.21-7.24-2.56c-2.26-1.36-4.15-3.44-5.66-6.26
			c-1.51-2.82-2.26-6.69-2.26-11.62v-67.9c0-2.61,0.88-4.8,2.64-6.56C313.91,44.26,316.1,43.37,318.71,43.37z"/>
		<path class="st0" d="M401.4,142.96c-8.55,0-15.97-1.78-22.26-5.36c-6.29-3.57-11.12-8.42-14.49-14.56
			c-3.37-6.13-5.05-13.08-5.05-20.82c0-9.05,1.83-16.77,5.51-23.16c3.67-6.39,8.47-11.29,14.41-14.71
			c5.93-3.42,12.22-5.13,18.86-5.13c5.13,0,9.98,1.06,14.56,3.17c4.58,2.11,8.62,5,12.15,8.68c3.52,3.67,6.31,7.92,8.37,12.75
			c2.06,4.83,3.09,9.96,3.09,15.39c-0.1,2.41-1.06,4.38-2.87,5.88s-3.92,2.26-6.34,2.26h-57.64l-4.53-15.09h55.38l-3.32,3.02V91.2
			c-0.2-2.92-1.23-5.53-3.09-7.85c-1.86-2.31-4.18-4.15-6.94-5.51c-2.77-1.36-5.71-2.04-8.83-2.04c-3.02,0-5.83,0.4-8.45,1.21
			c-2.62,0.81-4.88,2.16-6.79,4.07c-1.91,1.91-3.42,4.48-4.53,7.7c-1.11,3.22-1.66,7.29-1.66,12.22c0,5.43,1.13,10.03,3.4,13.81
			c2.26,3.77,5.18,6.64,8.75,8.6c3.57,1.96,7.37,2.94,11.39,2.94c3.72,0,6.69-0.3,8.9-0.91c2.21-0.6,4-1.33,5.36-2.19
			c1.36-0.85,2.59-1.58,3.7-2.19c1.81-0.91,3.52-1.36,5.13-1.36c2.21,0,4.05,0.75,5.51,2.26c1.46,1.51,2.19,3.27,2.19,5.28
			c0,2.72-1.41,5.18-4.22,7.39c-2.62,2.21-6.29,4.15-11.01,5.81C411.31,142.13,406.43,142.96,401.4,142.96z"/>
		<path class="st0" d="M461.45,141.45c-2.62,0-4.78-0.88-6.49-2.64c-1.71-1.76-2.57-3.95-2.57-6.56V69.93c0-2.61,0.85-4.8,2.57-6.56
			c1.71-1.76,3.87-2.64,6.49-2.64c2.62,0,4.78,0.88,6.49,2.64c1.71,1.76,2.57,3.95,2.57,6.56v14.18L469.45,74
			c1.11-2.41,2.54-4.55,4.3-6.41c1.76-1.86,3.75-3.42,5.96-4.68c2.21-1.26,4.58-2.19,7.09-2.79c2.51-0.6,5.03-0.91,7.54-0.91
			c3.02,0,5.56,0.86,7.62,2.56c2.06,1.71,3.09,3.72,3.09,6.04c0,3.32-0.86,5.71-2.57,7.17c-1.71,1.46-3.57,2.19-5.58,2.19
			c-1.91,0-3.65-0.35-5.21-1.06c-1.56-0.7-3.35-1.06-5.36-1.06c-1.81,0-3.65,0.43-5.51,1.28c-1.86,0.86-3.57,2.19-5.13,4
			c-1.56,1.81-2.82,4.05-3.77,6.71c-0.96,2.67-1.43,5.81-1.43,9.43v35.76c0,2.62-0.86,4.8-2.57,6.56
			C466.23,140.57,464.07,141.45,461.45,141.45z"/>
		<path class="st1" d="M528.9,35.68c1.41,0,2.89,0.38,4.45,1.13c1.56,0.75,2.74,1.74,3.55,2.94l36.67,56.43l-7.54-0.3l37.57-56.13
			c1.91-2.72,4.38-4.07,7.39-4.07c2.41,0,4.58,0.86,6.49,2.57c1.91,1.71,2.87,3.92,2.87,6.64v87.36c0,2.62-0.86,4.8-2.57,6.56
			c-1.71,1.76-3.97,2.64-6.79,2.64c-2.82,0-5.11-0.88-6.87-2.64c-1.76-1.76-2.64-3.95-2.64-6.56V61.18l5.88,1.36l-30.78,46.93
			c-0.91,1.11-2.04,2.06-3.39,2.87c-1.36,0.81-2.74,1.16-4.15,1.06c-1.31,0.1-2.64-0.25-4-1.06c-1.36-0.8-2.49-1.76-3.39-2.87
			l-28.82-45.57l3.92-8v76.35c0,2.62-0.81,4.8-2.41,6.56c-1.61,1.76-3.72,2.64-6.34,2.64c-2.52,0-4.58-0.88-6.19-2.64
			c-1.61-1.76-2.41-3.95-2.41-6.56V44.88c0-2.51,0.93-4.68,2.79-6.49C524.04,36.58,526.28,35.68,528.9,35.68z"/>
		<path class="st1" d="M707.54,59.22c2.61,0,4.78,0.86,6.49,2.56c1.71,1.71,2.56,3.92,2.56,6.64v63.82c0,2.62-0.86,4.8-2.56,6.56
			c-1.71,1.76-3.87,2.64-6.49,2.64c-2.62,0-4.78-0.88-6.49-2.64c-1.71-1.76-2.56-3.95-2.56-6.56v-7.39l3.32,1.36
			c0,1.31-0.71,2.89-2.11,4.75c-1.41,1.86-3.32,3.7-5.73,5.51s-5.26,3.35-8.52,4.6c-3.27,1.26-6.82,1.89-10.64,1.89
			c-6.94,0-13.23-1.78-18.86-5.36c-5.63-3.57-10.09-8.5-13.35-14.79c-3.27-6.29-4.9-13.5-4.9-21.65c0-8.25,1.63-15.52,4.9-21.8
			c3.27-6.28,7.67-11.21,13.2-14.79c5.53-3.57,11.67-5.36,18.41-5.36c4.32,0,8.3,0.66,11.92,1.96c3.62,1.31,6.76,2.97,9.43,4.98
			c2.66,2.01,4.73,4.05,6.19,6.11c1.46,2.06,2.19,3.8,2.19,5.21l-5.43,1.96V68.42c0-2.61,0.85-4.8,2.56-6.56
			C702.76,60.1,704.92,59.22,707.54,59.22z M677.06,126.36c4.42,0,8.3-1.11,11.62-3.32c3.32-2.21,5.91-5.23,7.77-9.05
			c1.86-3.82,2.79-8.1,2.79-12.83c0-4.83-0.93-9.15-2.79-12.98c-1.86-3.82-4.45-6.84-7.77-9.05c-3.32-2.21-7.19-3.32-11.62-3.32
			c-4.33,0-8.15,1.11-11.47,3.32c-3.32,2.21-5.91,5.23-7.77,9.05c-1.86,3.82-2.79,8.15-2.79,12.98c0,4.73,0.93,9,2.79,12.83
			c1.86,3.82,4.45,6.84,7.77,9.05C668.92,125.25,672.74,126.36,677.06,126.36z"/>
		<path class="st1" d="M745.26,141.45c-2.62,0-4.78-0.88-6.49-2.64c-1.71-1.76-2.57-3.95-2.57-6.56V69.93c0-2.61,0.85-4.8,2.57-6.56
			c1.71-1.76,3.87-2.64,6.49-2.64c2.62,0,4.78,0.88,6.49,2.64c1.71,1.76,2.57,3.95,2.57,6.56v14.18L753.26,74
			c1.11-2.41,2.54-4.55,4.3-6.41c1.76-1.86,3.75-3.42,5.96-4.68c2.21-1.26,4.58-2.19,7.09-2.79c2.51-0.6,5.03-0.91,7.54-0.91
			c3.02,0,5.56,0.86,7.62,2.56c2.06,1.71,3.09,3.72,3.09,6.04c0,3.32-0.86,5.71-2.57,7.17c-1.71,1.46-3.57,2.19-5.58,2.19
			c-1.91,0-3.65-0.35-5.21-1.06c-1.56-0.7-3.35-1.06-5.36-1.06c-1.81,0-3.65,0.43-5.51,1.28c-1.86,0.86-3.57,2.19-5.13,4
			c-1.56,1.81-2.82,4.05-3.77,6.71c-0.96,2.67-1.43,5.81-1.43,9.43v35.76c0,2.62-0.86,4.8-2.57,6.56
			C750.04,140.57,747.88,141.45,745.26,141.45z"/>
		<path class="st1" d="M812.25,141.45c-2.62,0-4.78-0.88-6.49-2.64c-1.71-1.76-2.57-3.95-2.57-6.56V39c0-2.61,0.85-4.8,2.57-6.56
			c1.71-1.76,3.87-2.64,6.49-2.64c2.62,0,4.78,0.88,6.49,2.64c1.71,1.76,2.57,3.95,2.57,6.56v93.25c0,2.62-0.86,4.8-2.57,6.56
			C817.03,140.57,814.87,141.45,812.25,141.45z M860.24,60.73c2.31,0,4.32,0.96,6.04,2.87c1.71,1.91,2.56,3.77,2.56,5.58
			c0,2.41-1.21,4.68-3.62,6.79l-45.42,41.79l-0.75-20.82l34.55-33.35C855.51,61.68,857.72,60.73,860.24,60.73z M862.5,141.3
			c-2.62,0-4.83-1-6.64-3.02l-27.91-29.57l13.73-12.67l27.16,29.57c1.91,2.01,2.87,4.28,2.87,6.79c0,2.62-1.03,4.75-3.09,6.41
			C866.55,140.47,864.51,141.3,862.5,141.3z"/>
		<path class="st1" d="M925.57,142.96c-8.55,0-15.97-1.78-22.26-5.36c-6.29-3.57-11.12-8.42-14.49-14.56
			c-3.37-6.13-5.05-13.08-5.05-20.82c0-9.05,1.83-16.77,5.51-23.16c3.67-6.39,8.47-11.29,14.41-14.71
			c5.93-3.42,12.22-5.13,18.86-5.13c5.13,0,9.98,1.06,14.56,3.17c4.58,2.11,8.62,5,12.15,8.68c3.52,3.67,6.31,7.92,8.37,12.75
			c2.06,4.83,3.09,9.96,3.09,15.39c-0.1,2.41-1.06,4.38-2.87,5.88s-3.92,2.26-6.34,2.26h-57.64l-4.53-15.09h55.38l-3.32,3.02V91.2
			c-0.2-2.92-1.23-5.53-3.09-7.85c-1.86-2.31-4.17-4.15-6.94-5.51c-2.77-1.36-5.71-2.04-8.83-2.04c-3.02,0-5.84,0.4-8.45,1.21
			c-2.62,0.81-4.88,2.16-6.79,4.07c-1.91,1.91-3.42,4.48-4.53,7.7c-1.11,3.22-1.66,7.29-1.66,12.22c0,5.43,1.13,10.03,3.39,13.81
			c2.26,3.77,5.18,6.64,8.75,8.6c3.57,1.96,7.37,2.94,11.39,2.94c3.72,0,6.69-0.3,8.9-0.91c2.21-0.6,4-1.33,5.36-2.19
			c1.36-0.85,2.59-1.58,3.7-2.19c1.81-0.91,3.52-1.36,5.13-1.36c2.21,0,4.05,0.75,5.51,2.26c1.46,1.51,2.19,3.27,2.19,5.28
			c0,2.72-1.41,5.18-4.22,7.39c-2.62,2.21-6.29,4.15-11.01,5.81C935.47,142.13,930.6,142.96,925.57,142.96z"/>
		<path class="st1" d="M977.47,62.23h35.76c2.41,0,4.42,0.81,6.04,2.41c1.61,1.61,2.41,3.62,2.41,6.04c0,2.31-0.81,4.25-2.41,5.81
			c-1.61,1.56-3.62,2.34-6.04,2.34h-35.76c-2.41,0-4.43-0.8-6.04-2.41c-1.61-1.61-2.41-3.62-2.41-6.04c0-2.31,0.8-4.25,2.41-5.81
			C973.04,63.01,975.06,62.23,977.47,62.23z M993.62,43.37c2.62,0,4.75,0.88,6.41,2.64c1.66,1.76,2.49,3.95,2.49,6.56v67.14
			c0,1.41,0.28,2.57,0.83,3.47c0.55,0.91,1.31,1.56,2.26,1.96c0.95,0.4,1.98,0.6,3.09,0.6c1.21,0,2.31-0.23,3.32-0.68
			c1-0.45,2.16-0.68,3.47-0.68c1.41,0,2.69,0.66,3.85,1.96c1.16,1.31,1.73,3.12,1.73,5.43c0,2.82-1.53,5.13-4.6,6.94
			c-3.07,1.81-6.36,2.72-9.88,2.72c-2.11,0-4.45-0.17-7.02-0.53c-2.56-0.35-4.98-1.21-7.24-2.56c-2.26-1.36-4.15-3.44-5.66-6.26
			c-1.51-2.82-2.26-6.69-2.26-11.62v-67.9c0-2.61,0.88-4.8,2.64-6.56C988.81,44.26,991,43.37,993.62,43.37z"/>
		<path class="st0" d="M1046.27,141.3c-2.92,0-5.16-0.78-6.71-2.34c-1.56-1.56-2.34-3.8-2.34-6.71v-2.57c0-2.92,0.78-5.15,2.34-6.71
			c1.56-1.56,3.8-2.34,6.71-2.34h1.96c2.92,0,5.15,0.78,6.71,2.34c1.56,1.56,2.34,3.8,2.34,6.71v2.57c0,2.92-0.78,5.16-2.34,6.71
			c-1.56,1.56-3.8,2.34-6.71,2.34H1046.27z"/>
	</g>
</g>
</svg>
