<?xml version="1.0" encoding="iso-8859-1"?>
<!-- Uploaded to: SVG Repo, www.svgrepo.com, Generator: SVG Repo Mixer Tools -->
<svg height="800px" width="800px" version="1.1" id="Layer_1" xmlns="http://www.w3.org/2000/svg" xmlns:xlink="http://www.w3.org/1999/xlink" 
	 viewBox="0 0 297 297" xml:space="preserve">
<g>
	<path style="fill:#F4B638;" d="M231.14,0h-82.973H65.862c-4.425,0-8.013,3.588-8.013,8.013v33.056c0,4.425,3.588,8.013,8.013,8.013
		h82.306h82.973c4.425,0,8.013-3.588,8.013-8.013V8.013C239.154,3.588,235.564,0,231.14,0z"/>
	<path style="fill:#FCD067;" d="M65.862,0c-4.425,0-8.013,3.588-8.013,8.013v33.056c0,4.425,3.588,8.013,8.013,8.013h82.306V0
		H65.862z"/>
	<path style="fill:#F4B638;" d="M231.14,0h-82.973v49.083h82.973c4.425,0,8.013-3.588,8.013-8.013V8.013
		C239.154,3.588,235.566,0,231.14,0z"/>
	<path style="fill:#DB7709;" d="M255.441,105.237l-16.528-66.111h-90.746h-90.08L41.56,105.237c-0.159,0.636-0.24,1.288-0.24,1.944
		v181.806c0,4.425,3.588,8.013,8.013,8.013h98.833h99.5c4.425,0,8.013-3.588,8.013-8.013V107.18
		C255.68,106.525,255.601,105.873,255.441,105.237z"/>
	<path style="fill:#FA961E;" d="M58.088,39.125L41.56,105.236c-0.159,0.636-0.24,1.288-0.24,1.944v181.806
		c0,4.425,3.588,8.013,8.013,8.013h98.833V39.125H58.088z"/>
	<path style="fill:#DB7709;" d="M255.441,105.237l-16.528-66.111h-90.747V297h99.501c4.425,0,8.013-3.588,8.013-8.013V107.18
		C255.68,106.525,255.601,105.873,255.441,105.237z"/>
	<path style="fill:#9B1024;" d="M204.836,135.92c-1.553-2.43-4.282-3.826-7.172-3.687c-2.881,0.152-5.457,1.839-6.747,4.419
		l-6.034,12.068c-0.565-1.592-1.198-3.221-1.908-4.878c-5.137-11.992-15.225-27.365-34.808-38.142
		c-4.074-2.242-8.55-4.29-13.488-6.062c-3.092-1.106-6.541-0.221-8.712,2.237c-2.172,2.459-2.626,5.993-1.146,8.921
		c0.107,0.209,8.518,17.571,5.016,32.137c-6.84-5.695-17.523-11.694-31.495-10.69c-2.816,0.203-5.318,1.872-6.585,4.395
		c-0.376,0.748-9.238,18.587-11.576,40.693c-3.243,30.654,7.505,54.481,31.083,68.907c1.259,0.77,2.706,1.178,4.182,1.178h32.722
		h33.389c1.047,0,2.083-0.204,3.05-0.604c1.109-0.456,27.257-11.495,35.963-39.074C227.189,186.768,221.895,162.605,204.836,135.92z
		"/>
	<path style="fill:#A91523;" d="M134.68,99.637c-3.092-1.106-6.541-0.221-8.712,2.237c-2.173,2.459-2.626,5.993-1.146,8.921
		c0.107,0.209,8.518,17.571,5.016,32.137c-6.84-5.695-17.523-11.694-31.495-10.69c-2.816,0.202-5.318,1.872-6.585,4.395
		c-0.376,0.748-9.238,18.587-11.576,40.694c-3.243,30.654,7.505,54.481,31.083,68.907c1.259,0.77,2.706,1.178,4.182,1.178h32.722
		V105.699C144.092,103.457,139.618,101.409,134.68,99.637z"/>
	<path style="fill:#9B1024;" d="M204.836,135.92c-1.553-2.43-4.282-3.826-7.172-3.687c-2.881,0.152-5.457,1.839-6.747,4.419
		l-6.034,12.068c-0.565-1.592-1.198-3.221-1.908-4.878c-5.137-11.992-15.225-27.365-34.808-38.142v141.717h33.389
		c1.047,0,2.083-0.204,3.05-0.604c1.109-0.456,27.257-11.495,35.963-39.074C227.189,186.769,221.895,162.605,204.836,135.92z"/>
	<path style="fill:#663435;" d="M144.281,183.007c-12.715,7.878-33.168,30.507-19.576,59.772c1.314,2.828,4.15,4.638,7.268,4.638
		h16.194v-65.603C146.813,181.87,145.471,182.27,144.281,183.007z"/>
	<path style="fill:#4C2426;" d="M177.18,211.442c-5.34-18.544-24.241-28.354-25.042-28.762c-1.248-0.636-2.617-0.923-3.972-0.866
		v65.603h16.861c2.819,0,5.431-1.482,6.878-3.901C178.405,232.646,180.18,221.855,177.18,211.442z"/>
</g>
</svg>