<?xml version="1.0" encoding="iso-8859-1"?>
<!-- Uploaded to: SVG Repo, www.svgrepo.com, Generator: SVG Repo Mixer Tools -->
<svg height="800px" width="800px" version="1.1" id="Layer_1" xmlns="http://www.w3.org/2000/svg" xmlns:xlink="http://www.w3.org/1999/xlink" 
	 viewBox="0 0 511.999 511.999" xml:space="preserve">
<path style="fill:#A1A1A1;" d="M101.769,7.779h234.347c6.798,0,12.309,5.511,12.309,12.309v234.347
	c0,6.798-5.511,12.309-12.309,12.309H101.769c-6.798,0-12.309-5.511-12.309-12.309V20.088C89.461,13.29,94.971,7.779,101.769,7.779z
	"/>
<path style="fill:#D6D6D6;" d="M101.769,7.779h113.613v258.965H101.769c-6.798,0-12.309-5.511-12.309-12.309V20.088
	C89.461,13.29,94.971,7.779,101.769,7.779z"/>
<path style="fill:#A9A9A9;" d="M303.999,160.455l201.935,118.914c5.858,3.449,7.81,10.994,4.361,16.852L391.381,498.155
	c-3.449,5.858-10.994,7.81-16.852,4.361L172.595,383.602c-5.858-3.449-7.81-10.994-4.361-16.852l118.914-201.935
	C290.597,158.957,298.142,157.004,303.999,160.455z"/>
<path style="fill:#BEBEBE;" d="M12.309,242.674h234.347c6.798,0,12.309,5.511,12.309,12.309V489.33
	c0,6.798-5.511,12.309-12.309,12.309H12.309C5.511,501.639,0,496.128,0,489.33V254.983C0,248.185,5.511,242.674,12.309,242.674z"/>
<path style="fill:#E9E9E9;" d="M12.309,242.674h203.072v258.965H12.309C5.511,501.639,0,496.128,0,489.33V254.983
	C0,248.185,5.511,242.674,12.309,242.674z"/>
</svg>